<svg width="16" height="17" viewBox="0 0 16 17" fill="none" xmlns="http://www.w3.org/2000/svg">
<path fill-rule="evenodd" clip-rule="evenodd" d="M16 7.7951V15.4993C16 16.2356 15.403 16.8326 14.6667 16.8326H11.3333C10.5969 16.8326 9.99999 16.2356 9.99999 15.4993V12.1659C9.99999 11.7977 9.70151 11.4993 9.33332 11.4993H6.66666C6.29847 11.4993 5.99999 11.7977 5.99999 12.1659V15.4993C5.99999 16.2356 5.40304 16.8326 4.66666 16.8326H1.33333C0.596953 16.8326 1.54322e-08 16.2356 1.54322e-08 15.4993V7.7951C-5.66978e-05 7.42201 0.156204 7.06597 0.430833 6.81343L7.09749 0.523441L7.10666 0.514274C7.61528 0.0517199 8.39221 0.0517199 8.90082 0.514274C8.90367 0.517535 8.90673 0.520597 8.90999 0.523441L15.5766 6.81343C15.8485 7.06728 16.002 7.42315 16 7.7951Z" fill="#0088FF"/>
</svg>
