<svg width="18" height="17" viewBox="0 0 18 17" fill="none" xmlns="http://www.w3.org/2000/svg">
<path d="M9 8.14204C7.90917 8.14204 6.97539 7.74347 6.19868 6.94632C5.42178 6.14899 5.03333 5.19055 5.03333 4.07102C5.03333 2.95149 5.42178 1.99315 6.19868 1.19601C6.97539 0.398669 7.90917 0 9 0C10.0908 0 11.0246 0.398669 11.8013 1.19601C12.5782 1.99315 12.9667 2.95149 12.9667 4.07102C12.9667 5.19055 12.5782 6.14899 11.8013 6.94632C11.0246 7.74347 10.0908 8.14204 9 8.14204ZM0.5 15.2329V14.414C0.5 13.8445 0.650734 13.317 0.9522 12.8316C1.25367 12.3461 1.65657 11.973 2.1609 11.712C3.28101 11.1485 4.41104 10.7258 5.55098 10.4439C6.69093 10.162 7.8406 10.0211 9 10.0211C10.1594 10.0211 11.3091 10.162 12.449 10.4439C13.589 10.7258 14.719 11.1485 15.8391 11.712C16.3434 11.973 16.7463 12.3461 17.0478 12.8316C17.3493 13.317 17.5 13.8445 17.5 14.414V15.2329C17.5 15.7233 17.3326 16.1405 16.9977 16.4844C16.6628 16.8281 16.2563 17 15.7782 17H2.22182C1.74374 17 1.33725 16.8281 1.00235 16.4844C0.66745 16.1405 0.5 15.7233 0.5 15.2329ZM2.2 15.2553H15.8V14.414C15.8 14.1785 15.7335 13.9604 15.6005 13.7598C15.4676 13.5593 15.2871 13.3957 15.0591 13.2689C14.0825 12.7753 13.0869 12.4014 12.0722 12.1471C11.0573 11.8929 10.0332 11.7658 9 11.7658C7.96678 11.7658 6.94272 11.8929 5.92782 12.1471C4.91311 12.4014 3.91747 12.7753 2.94092 13.2689C2.71293 13.3957 2.53244 13.5593 2.39947 13.7598C2.26649 13.9604 2.2 14.1785 2.2 14.414V15.2553ZM9 6.39732C9.62333 6.39732 10.1569 6.16953 10.6008 5.71397C11.0447 5.2584 11.2667 4.71075 11.2667 4.07102C11.2667 3.43129 11.0447 2.88364 10.6008 2.42807C10.1569 1.97251 9.62333 1.74472 9 1.74472C8.37667 1.74472 7.84306 1.97251 7.39917 2.42807C6.95528 2.88364 6.73333 3.43129 6.73333 4.07102C6.73333 4.71075 6.95528 5.2584 7.39917 5.71397C7.84306 6.16953 8.37667 6.39732 9 6.39732Z" fill="#BFBFBF"/>
<path d="M2.2 15.2553H15.8V14.414C15.8 14.1785 15.7335 13.9604 15.6005 13.7598C15.4676 13.5593 15.2871 13.3957 15.0591 13.2689C14.0825 12.7753 13.0869 12.4014 12.0722 12.1471C11.0573 11.8929 10.0332 11.7658 9 11.7658C7.96678 11.7658 6.94272 11.8929 5.92782 12.1471C4.91311 12.4014 3.91747 12.7753 2.94092 13.2689C2.71293 13.3957 2.53244 13.5593 2.39947 13.7598C2.26649 13.9604 2.2 14.1785 2.2 14.414V15.2553Z" fill="#BFBFBF"/>
<path d="M9 6.39732C9.62333 6.39732 10.1569 6.16953 10.6008 5.71397C11.0447 5.2584 11.2667 4.71075 11.2667 4.07102C11.2667 3.43129 11.0447 2.88364 10.6008 2.42807C10.1569 1.97251 9.62333 1.74472 9 1.74472C8.37667 1.74472 7.84306 1.97251 7.39917 2.42807C6.95528 2.88364 6.73333 3.43129 6.73333 4.07102C6.73333 4.71075 6.95528 5.2584 7.39917 5.71397C7.84306 6.16953 8.37667 6.39732 9 6.39732Z" fill="#BFBFBF"/>
</svg>
