<svg width="20" height="17" viewBox="0 0 20 17" fill="none" xmlns="http://www.w3.org/2000/svg">
<path fill-rule="evenodd" clip-rule="evenodd" d="M17.6923 2.21739H15.0269L13.7163 0.328913C13.5737 0.123547 13.3339 0.000148243 13.0769 0H6.92308C6.66614 0.000148243 6.42625 0.123547 6.28365 0.328913L4.97212 2.21739H2.30769C1.03319 2.21739 0 3.21015 0 4.43478V14.7826C0 16.0072 1.03319 17 2.30769 17H17.6923C18.9668 17 20 16.0072 20 14.7826V4.43478C20 3.21015 18.9668 2.21739 17.6923 2.21739ZM18.4615 14.7826C18.4615 15.1908 18.1171 15.5217 17.6923 15.5217H2.30769C1.88286 15.5217 1.53846 15.1908 1.53846 14.7826V4.43478C1.53846 4.02657 1.88286 3.69565 2.30769 3.69565H5.38462C5.64189 3.69581 5.88221 3.57238 6.025 3.36674L7.33462 1.47826H12.6644L13.975 3.36674C14.1178 3.57238 14.3581 3.69581 14.6154 3.69565H17.6923C18.1171 3.69565 18.4615 4.02657 18.4615 4.43478V14.7826ZM10 5.17391C7.66341 5.17391 5.76923 6.99397 5.76923 9.23913C5.76923 11.4843 7.66341 13.3043 10 13.3043C12.3366 13.3043 14.2308 11.4843 14.2308 9.23913C14.2281 6.99503 12.3355 5.17646 10 5.17391ZM10 11.8261C8.51308 11.8261 7.30769 10.6679 7.30769 9.23913C7.30769 7.81039 8.51308 6.65217 10 6.65217C11.4869 6.65217 12.6923 7.81039 12.6923 9.23913C12.6923 10.6679 11.4869 11.8261 10 11.8261Z" fill="#BFBFBF"/>
<path fill-rule="evenodd" clip-rule="evenodd" d="M18.4615 14.7826C18.4615 15.1908 18.1171 15.5217 17.6923 15.5217H2.30769C1.88286 15.5217 1.53846 15.1908 1.53846 14.7826V4.43478C1.53846 4.02657 1.88286 3.69565 2.30769 3.69565H5.38462C5.64189 3.69581 5.88221 3.57238 6.025 3.36674L7.33462 1.47826H12.6644L13.975 3.36674C14.1178 3.57238 14.3581 3.69581 14.6154 3.69565H17.6923C18.1171 3.69565 18.4615 4.02657 18.4615 4.43478V14.7826ZM5.76923 9.23913C5.76923 6.99397 7.66341 5.17391 10 5.17391C12.3355 5.17646 14.2281 6.99503 14.2308 9.23913C14.2308 11.4843 12.3366 13.3043 10 13.3043C7.66341 13.3043 5.76923 11.4843 5.76923 9.23913Z" fill="#BFBFBF"/>
</svg>
