<svg width="15" height="16" viewBox="0 0 15 16" fill="none" xmlns="http://www.w3.org/2000/svg">
<path fill-rule="evenodd" clip-rule="evenodd" d="M7.49892 4.58557C5.59915 4.58557 4.05909 6.12564 4.05909 8.02541C4.05909 9.92517 5.59915 11.4652 7.49892 11.4652C9.39868 11.4652 10.9387 9.92517 10.9387 8.02541C10.9368 6.12646 9.39787 4.58755 7.49892 4.58557ZM7.49892 10.3186C6.23241 10.3186 5.2057 9.29192 5.2057 8.02541C5.2057 6.7589 6.23241 5.73219 7.49892 5.73219C8.76543 5.73219 9.79214 6.7589 9.79214 8.02541C9.79214 9.29192 8.76543 10.3186 7.49892 10.3186ZM13.8053 8.1802C13.8081 8.077 13.8081 7.97381 13.8053 7.87061L14.8745 6.53481C14.9882 6.39258 15.0276 6.20479 14.9806 6.02887C14.8053 5.37 14.5431 4.73739 14.2009 4.14771C14.11 3.99124 13.9506 3.88685 13.7709 3.86608L12.071 3.67689C12.0003 3.60236 11.9287 3.53069 11.856 3.4619L11.6554 1.75775C11.6345 1.57787 11.5298 1.41846 11.373 1.32777C10.7831 0.986182 10.1506 0.724244 9.49187 0.548788C9.31584 0.501987 9.12804 0.541621 8.98593 0.655567L7.65371 1.71905C7.55051 1.71905 7.44732 1.71905 7.34412 1.71905L6.00832 0.651983C5.86609 0.538288 5.6783 0.498922 5.50238 0.545922C4.84362 0.721516 4.21105 0.9837 3.62122 1.32562C3.46475 1.41647 3.36036 1.57586 3.33959 1.7556L3.1504 3.45831C3.07587 3.5295 3.0042 3.60116 2.93541 3.6733L1.23126 3.86894C1.05138 3.88987 0.891967 3.99455 0.801278 4.1513C0.459693 4.7412 0.197755 5.37376 0.0222991 6.03245C-0.0245025 6.20849 0.0151322 6.39629 0.129077 6.5384L1.19256 7.87061C1.19256 7.97381 1.19256 8.077 1.19256 8.1802L0.125494 9.516C0.0117987 9.65823 -0.0275675 9.84602 0.0194325 10.0219C0.194713 10.6808 0.456914 11.3134 0.799128 11.9031C0.889982 12.0596 1.04937 12.164 1.22911 12.1847L2.92896 12.3739C3.00014 12.4485 3.07181 12.5201 3.14395 12.5889L3.34245 14.2931C3.36338 14.4729 3.46806 14.6324 3.62481 14.723C4.21471 15.0646 4.84727 15.3266 5.50596 15.502C5.682 15.5488 5.8698 15.5092 6.01191 15.3952L7.34412 14.3318C7.44732 14.3346 7.55051 14.3346 7.65371 14.3318L8.98951 15.401C9.13174 15.5147 9.31953 15.554 9.49545 15.507C10.1543 15.3318 10.7869 15.0696 11.3766 14.7273C11.5331 14.6365 11.6375 14.4771 11.6582 14.2974L11.8474 12.5975C11.922 12.5268 11.9936 12.4551 12.0624 12.3825L13.7666 12.1819C13.9465 12.1609 14.1059 12.0563 14.1966 11.8995C14.5381 11.3096 14.8001 10.6771 14.9755 10.0184C15.0223 9.84232 14.9827 9.65453 14.8688 9.51242L13.8053 8.1802ZM12.6515 7.71439C12.6637 7.92155 12.6637 8.12926 12.6515 8.33642C12.643 8.47826 12.6874 8.61821 12.7762 8.72914L13.7931 9.99973C13.6764 10.3706 13.527 10.7303 13.3466 11.0747L11.727 11.2581C11.586 11.2738 11.4558 11.3412 11.3616 11.4473C11.2236 11.6025 11.0767 11.7494 10.9216 11.8873C10.8154 11.9815 10.748 12.1118 10.7324 12.2528L10.5525 13.871C10.2081 14.0514 9.8484 14.2008 9.47754 14.3174L8.20623 13.3005C8.1045 13.2193 7.97813 13.175 7.84792 13.1751H7.81352C7.60635 13.1873 7.39865 13.1873 7.19148 13.1751C7.04965 13.1666 6.9097 13.211 6.79877 13.2998L5.5246 14.3174C5.15376 14.2007 4.79403 14.0513 4.44965 13.871L4.26619 12.2535C4.25054 12.1125 4.18312 11.9823 4.077 11.8881C3.92186 11.7501 3.77493 11.6032 3.63699 11.448C3.54278 11.3419 3.41255 11.2745 3.27151 11.2588L1.65335 11.0783C1.4729 10.7339 1.32349 10.3742 1.20689 10.0033L2.22379 8.732C2.31259 8.62108 2.35702 8.48113 2.34849 8.33929C2.3363 8.13212 2.3363 7.92442 2.34849 7.71725C2.35702 7.57542 2.31259 7.43547 2.22379 7.32454L1.20689 6.05109C1.32358 5.68025 1.47298 5.32052 1.65335 4.97614L3.27079 4.79268C3.41183 4.77702 3.54206 4.70961 3.63627 4.60349C3.77422 4.44835 3.92114 4.30142 4.07628 4.16348C4.18283 4.0692 4.25052 3.93868 4.26619 3.79728L4.44607 2.17984C4.79041 1.99939 5.15015 1.84998 5.52101 1.73338L6.79232 2.75028C6.90325 2.83908 7.0432 2.88351 7.18503 2.87497C7.3922 2.86279 7.5999 2.86279 7.80707 2.87497C7.9489 2.88351 8.08885 2.83908 8.19978 2.75028L9.47324 1.73338C9.84407 1.85007 10.2038 1.99947 10.5482 2.17984L10.7316 3.79728C10.7473 3.93832 10.8147 4.06855 10.9208 4.16276C11.076 4.30071 11.2229 4.44763 11.3608 4.60277C11.4551 4.7089 11.5853 4.77631 11.7263 4.79196L13.3445 4.97184C13.5249 5.31618 13.6743 5.67592 13.7909 6.04679L12.774 7.31809C12.6844 7.42995 12.6399 7.57135 12.6493 7.71439H12.6515Z" fill="black"/>
</svg>
